{"title":"Eat Pray Love[2010]R5 XViD - LAP","uid":5940921,"size":1466511796,"categoryP":"video","categoryS":"movies","magnet":"?xt=urn:btih:b9332a69faf1cfc6191120ce309840169e2afcdd&amp;dn=Eat+Pray+Love%5B2010%5DR5+XViD+-+LAP&amp;tr=udp%3A%2F%2Ftracker.openbittorrent.com%3A80&amp;tr=udp%3A%2F%2Fopen.demonii.com%3A1337&amp;tr=udp%3A%2F%2Ftracker.coppersurfer.tk%3A6969&amp;tr=udp%3A%2F%2Fexodus.desync.com%3A6969","seeders":1,"leechers":0,"uploader":"XoLWoX","files":-1,"time":1289174286,"description":"[img]http://imgr.us/images/rlwy9l9sgog1o8kuokx.png[/img]\n\nVideo\nID : 0\nFormat : MPEG-4 Visual\nFormat profile : AdvancedSimple@L5\nFormat settings, BVOP : Yes\nFormat settings, QPel : No\nFormat settings, GMC : No warppoints\nFormat settings, Matrix : Default (MPEG)\nMuxing mode : Packed bitstream\nCodec ID : XVID\nCodec ID/Hint : XviD\nDuration : 1h 12mn\nBit rate : 1 104 Kbps\nWidth : 624 pixels\nHeight : 352 pixels\nDisplay aspect ratio : 16:9\nFrame rate : 25.000 fps\nResolution : 24 bits\nColorimetry : 4:2:0\nScan type : Progressive\nBits/(Pixel*Frame) : 0.201\nStream size : 575 MiB (82%)\nWriting library : XviD 1.2.1 (UTC 2008-12-04)\n\nAudio\nID : 1\nFormat : MPEG Audio\nFormat version : Version 1\nFormat profile : Layer 3\nFormat_Settings_Mode : Joint stereo / MS Stereo\nCodec ID : 55\nCodec ID/Hint : MP3\nDuration : 1h 12mn\nBit rate mode : Variable\nBit rate : 224 Kbps\nChannel(s) : 2 channels\nSampling rate : 48.0 KHz\nResolution : 16 bits\nStream size : 116 MiB (17%)\nAlignment : Aligned on interleaves\nInterleave, duration : 24 ms (0.60 video frame)\nInterleave, preload duration : 529 ms \n\n[img]http://img821.imageshack.us/img821/6480/out1kl.png[/img]\n[img]http://img829.imageshack.us/img829/2839/lapetprlvapreview.jpg[/img]","torrent":{"xt":"urn:btih:b9332a69faf1cfc6191120ce309840169e2afcdd","amp;dn":"Eat+Pray+Love%5B2010%5DR5+XViD+-+LAP","amp;tr":["udp%3A%2F%2Ftracker.openbittorrent.com%3A80","udp%3A%2F%2Fopen.demonii.com%3A1337","udp%3A%2F%2Ftracker.coppersurfer.tk%3A6969","udp%3A%2F%2Fexodus.desync.com%3A6969"],"infoHash":"b9332a69faf1cfc6191120ce309840169e2afcdd","infoHashBuffer":{"type":"Buffer","data":[185,51,42,105,250,241,207,198,25,17,32,206,48,152,64,22,158,42,252,221]},"announce":[],"urlList":[]}}